ffmpeg started on 2016-12-05 at 09:30:59
Report written to "Output/x264/results/ffmpeg/crowd_run_2160p50veryfast15000k.log"
Command line:
Tools/ffmpeg/ffmpeg -benchmark -y -i Input/y4m/crowd_run_2160p50.y4m -c:v libx264 -preset veryfast -b:v 15000k -an Output/x264/encoded/crowd_run_2160p50veryfast15000k.mkv
ffmpeg version N-82227-gdb23fde Copyright (c) 2000-2016 the FFmpeg developers
  built with gcc 5.4.0 (Ubuntu 5.4.0-6ubuntu1~16.04.2) 20160609
  configuration: --prefix=/home/jaroslav/ffmpeg_build --pkg-config-flags=--static --extra-cflags=-I/home/jaroslav/ffmpeg_build/include --extra-ldflags=-L/home/jaroslav/ffmpeg_build/lib --bindir=/home/jaroslav/bin --enable-gpl --enable-libass --enable-libfdk-aac --enable-libfreetype --enable-libmp3lame --enable-libopus --enable-libtheora --enable-libvorbis --enable-libvpx --enable-libx264 --enable-libx265 --enable-nvenc --enable-libmfx --enable-libxvid --enable-libgsm --enable-libopencore-amrnb --enable-version3 --enable-nonfree
  libavutil      55. 35.100 / 55. 35.100
  libavcodec     57. 66.101 / 57. 66.101
  libavformat    57. 57.100 / 57. 57.100
  libavdevice    57.  2.100 / 57.  2.100
  libavfilter     6. 66.100 /  6. 66.100
  libswscale      4.  3.100 /  4.  3.100
  libswresample   2.  4.100 /  2.  4.100
  libpostproc    54.  2.100 / 54.  2.100
Input #0, yuv4mpegpipe, from 'Input/y4m/crowd_run_2160p50.y4m':
  Duration: 00:00:10.00, start: 0.000000, bitrate: 4976642 kb/s
    Stream #0:0: Video: rawvideo (I420 / 0x30323449), yuv420p(progressive), 3840x2160, SAR 1:1 DAR 16:9, 50 fps, 50 tbr, 50 tbn, 50 tbc
[libx264 @ 0x327f1c0] using SAR=1/1
[libx264 @ 0x327f1c0] using cpu capabilities: MMX2 SSE2Fast SSSE3 SSE4.2 AVX FMA3 AVX2 LZCNT BMI2
[libx264 @ 0x327f1c0] profile High, level 5.2
[libx264 @ 0x327f1c0] 264 - core 148 - H.264/MPEG-4 AVC codec - Copyleft 2003-2016 - http://www.videolan.org/x264.html - options: cabac=1 ref=1 deblock=1:0:0 analyse=0x3:0x113 me=hex subme=2 psy=1 psy_rd=1.00:0.00 mixed_ref=0 me_range=16 chroma_me=1 trellis=0 8x8dct=1 cqm=0 deadzone=21,11 fast_pskip=1 chroma_qp_offset=0 threads=6 lookahead_threads=2 sliced_threads=0 nr=0 decimate=1 interlaced=0 bluray_compat=0 constrained_intra=0 bframes=3 b_pyramid=2 b_adapt=1 b_bias=0 direct=1 weightb=1 open_gop=0 weightp=1 keyint=250 keyint_min=25 scenecut=40 intra_refresh=0 rc_lookahead=10 rc=abr mbtree=1 bitrate=15000 ratetol=1.0 qcomp=0.60 qpmin=0 qpmax=69 qpstep=4 ip_ratio=1.40 aq=1:1.00
Output #0, matroska, to 'Output/x264/encoded/crowd_run_2160p50veryfast15000k.mkv':
  Metadata:
    encoder         : Lavf57.57.100
    Stream #0:0: Video: h264 (libx264) (H264 / 0x34363248), yuv420p, 3840x2160 [SAR 1:1 DAR 16:9], q=-1--1, 15000 kb/s, 50 fps, 1k tbn, 50 tbc
    Metadata:
      encoder         : Lavc57.66.101 libx264
    Side data:
      cpb: bitrate max/min/avg: 0/0/15000000 buffer size: 0 vbv_delay: -1
Stream mapping:
  Stream #0:0 -> #0:0 (rawvideo (native) -> h264 (libx264))
Press [q] to stop, [?] for help
frame=   17 fps=0.0 q=0.0 size=       0kB time=00:00:00.00 bitrate=N/A speed=   0x    frame=   27 fps= 23 q=33.0 size=       1kB time=00:00:00.08 bitrate=  72.4kbits/s speed=0.0704x    frame=   31 fps= 18 q=41.0 size=       1kB time=00:00:00.16 bitrate=  36.4kbits/s speed=0.0952x    frame=   36 fps= 16 q=47.0 size=       1kB time=00:00:00.26 bitrate=  22.5kbits/s speed=0.118x    frame=   43 fps= 16 q=45.0 size=       1kB time=00:00:00.40 bitrate=  14.6kbits/s speed=0.146x    frame=   58 fps= 18 q=43.0 size=       1kB time=00:00:00.70 bitrate=   8.4kbits/s speed=0.213x    frame=   72 fps= 19 q=42.0 size=       1kB time=00:00:00.98 bitrate=   6.0kbits/s speed=0.257x    frame=   85 fps= 20 q=42.0 size=       1kB time=00:00:01.24 bitrate=   4.7kbits/s speed=0.285x    frame=   98 fps= 20 q=41.0 size=       1kB time=00:00:01.50 bitrate=   3.9kbits/s speed=0.307x    frame=  111 fps= 20 q=41.0 size=       1kB time=00:00:01.76 bitrate=   3.3kbits/s speed=0.324x    frame=  124 fps= 21 q=41.0 size=       1kB time=00:00:02.02 bitrate=   2.9kbits/s speed=0.34x    frame=  138 fps= 21 q=40.0 size=       1kB time=00:00:02.30 bitrate=   2.5kbits/s speed=0.353x    frame=  150 fps= 21 q=40.0 size=    5125kB time=00:00:02.54 bitrate=16521.6kbits/s speed=0.362x    frame=  163 fps= 22 q=40.0 size=    5125kB time=00:00:02.80 bitrate=14988.0kbits/s speed=0.37x    frame=  176 fps= 21 q=40.0 size=    5125kB time=00:00:03.06 bitrate=13714.9kbits/s speed=0.362x    frame=  181 fps= 20 q=40.0 size=    5125kB time=00:00:03.16 bitrate=13281.0kbits/s speed=0.353x    frame=  193 fps= 20 q=40.0 size=    5125kB time=00:00:03.40 bitrate=12343.8kbits/s speed=0.359x    frame=  206 fps= 21 q=40.0 size=    5125kB time=00:00:03.66 bitrate=11467.2kbits/s speed=0.366x    frame=  219 fps= 21 q=40.0 size=    5125kB time=00:00:03.92 bitrate=10706.8kbits/s speed=0.372x    frame=  230 fps= 21 q=40.0 size=    5125kB time=00:00:04.14 bitrate=10138.0kbits/s speed=0.375x    frame=  242 fps= 21 q=40.0 size=    5125kB time=00:00:04.38 bitrate=9582.6kbits/s speed=0.38x    frame=  254 fps= 21 q=40.0 size=    5125kB time=00:00:04.62 bitrate=9084.9kbits/s speed=0.383x    frame=  266 fps= 21 q=37.0 size=    5125kB time=00:00:04.86 bitrate=8636.3kbits/s speed=0.386x    frame=  275 fps= 21 q=40.0 size=    9348kB time=00:00:05.04 bitrate=15191.7kbits/s speed=0.385x    frame=  288 fps= 21 q=40.0 size=    9348kB time=00:00:05.30 bitrate=14446.6kbits/s speed=0.388x    frame=  301 fps= 21 q=40.0 size=    9348kB time=00:00:05.56 bitrate=13771.2kbits/s speed=0.392x    frame=  313 fps= 21 q=40.0 size=    9348kB time=00:00:05.80 bitrate=13201.4kbits/s speed=0.395x    frame=  325 fps= 21 q=40.0 size=    9348kB time=00:00:06.04 bitrate=12676.9kbits/s speed=0.397x    frame=  336 fps= 21 q=40.0 size=    9348kB time=00:00:06.26 bitrate=12231.5kbits/s speed=0.398x    frame=  348 fps= 21 q=40.0 size=    9348kB time=00:00:06.50 bitrate=11779.9kbits/s speed= 0.4x    frame=  361 fps= 22 q=40.0 size=    9348kB time=00:00:06.76 bitrate=11326.9kbits/s speed=0.403x    frame=  367 fps= 21 q=40.0 size=    9348kB time=00:00:06.88 bitrate=11129.4kbits/s speed=0.398x    frame=  378 fps= 21 q=40.0 size=    9348kB time=00:00:07.10 bitrate=10784.6kbits/s speed=0.399x    frame=  392 fps= 21 q=40.0 size=    9348kB time=00:00:07.38 bitrate=10375.5kbits/s speed=0.402x    frame=  404 fps= 21 q=40.0 size=    9348kB time=00:00:07.62 bitrate=10048.7kbits/s speed=0.404x    frame=  416 fps= 21 q=40.0 size=   14490kB time=00:00:07.86 bitrate=15100.1kbits/s speed=0.405x    frame=  428 fps= 21 q=40.0 size=   14490kB time=00:00:08.10 bitrate=14652.7kbits/s speed=0.406x    frame=  441 fps= 22 q=40.0 size=   14490kB time=00:00:08.36 bitrate=14197.1kbits/s speed=0.408x    frame=  453 fps= 22 q=40.0 size=   14490kB time=00:00:08.60 bitrate=13800.9kbits/s speed=0.409x    frame=  465 fps= 22 q=40.0 size=   14490kB time=00:00:08.84 bitrate=13426.3kbits/s speed=0.411x    frame=  476 fps= 22 q=40.0 size=   14490kB time=00:00:09.06 bitrate=13100.3kbits/s speed=0.411x    frame=  487 fps= 22 q=40.0 size=   14490kB time=00:00:09.28 bitrate=12789.8kbits/s speed=0.412x    frame=  498 fps= 22 q=40.0 size=   14490kB time=00:00:09.50 bitrate=12493.6kbits/s speed=0.412x    frame=  500 fps= 21 q=-1.0 Lsize=   18291kB time=00:00:09.94 bitrate=15073.1kbits/s speed=0.421x    
video:18287kB audio:0kB subtitle:0kB other streams:0kB global headers:0kB muxing overhead: 0.024763%
bench: utime=75.344s
bench: maxrss=1089120kB
[libx264 @ 0x327f1c0] frame I:2     Avg QP:30.83  size:557700
[libx264 @ 0x327f1c0] frame P:126   Avg QP:39.08  size: 79186
[libx264 @ 0x327f1c0] frame B:372   Avg QP:41.69  size: 20516
[libx264 @ 0x327f1c0] consecutive B-frames:  0.8%  0.0%  0.0% 99.2%
[libx264 @ 0x327f1c0] mb I  I16..4: 14.0% 53.4% 32.6%
[libx264 @ 0x327f1c0] mb P  I16..4:  5.1% 12.0%  0.1%  P16..4: 24.7% 10.9%  3.5%  0.0%  0.0%    skip:43.8%
[libx264 @ 0x327f1c0] mb B  I16..4:  0.7%  0.7%  0.0%  B16..8: 15.8%  3.9%  0.1%  direct: 2.9%  skip:75.9%  L0:41.6% L1:53.1% BI: 5.3%
[libx264 @ 0x327f1c0] final ratefactor: 31.83
[libx264 @ 0x327f1c0] 8x8 transform intra:64.7% inter:45.0%
[libx264 @ 0x327f1c0] coded y,uvDC,uvAC intra: 35.5% 44.8% 14.6% inter: 2.8% 5.9% 0.1%
[libx264 @ 0x327f1c0] i16 v,h,dc,p: 43% 25% 21% 11%
[libx264 @ 0x327f1c0] i8 v,h,dc,ddl,ddr,vr,hd,vl,hu: 20% 15% 33%  5%  5%  6%  5%  6%  6%
[libx264 @ 0x327f1c0] i4 v,h,dc,ddl,ddr,vr,hd,vl,hu: 19% 16% 12%  9%  9%  9%  8%  9%  9%
[libx264 @ 0x327f1c0] i8c dc,h,v,p: 66% 12% 19%  4%
[libx264 @ 0x327f1c0] Weighted P-Frames: Y:1.6% UV:0.0%
[libx264 @ 0x327f1c0] kb/s:14979.91
